<?xml version="1.0" standalone="no"?>
<!DOCTYPE svg PUBLIC "-//W3C//DTD SVG 20010904//EN"
 "http://www.w3.org/TR/2001/REC-SVG-20010904/DTD/svg10.dtd">
<svg version="1.0" xmlns="http://www.w3.org/2000/svg"
 width="512.000000pt" height="512.000000pt" viewBox="0 0 512.000000 512.000000"
 preserveAspectRatio="xMidYMid meet">

<g transform="translate(0.000000,512.000000) scale(0.100000,-0.100000)"
fill="#000000" stroke="none">
<path d="M2395 5113 c-27 -2 -105 -10 -173 -19 -309 -40 -711 -169 -720 -231
-4 -29 197 -462 221 -474 13 -7 48 2 135 34 124 48 228 76 382 104 148 27 516
25 670 -4 156 -30 297 -73 443 -136 155 -66 159 -73 93 -174 -48 -75 -55 -103
-31 -123 19 -16 991 -73 1017 -59 10 5 18 21 18 35 0 38 -436 901 -458 909
-33 10 -50 -5 -102 -85 -27 -43 -59 -81 -69 -85 -13 -4 -53 11 -113 41 -398
200 -867 296 -1313 267z"/>
<path d="M588 4230 c-294 -148 -439 -226 -443 -238 -10 -33 5 -50 85 -101 43
-27 81 -58 85 -70 4 -13 -10 -51 -41 -113 -131 -261 -212 -529 -255 -848 -19
-139 -16 -487 5 -635 46 -326 172 -714 233 -723 29 -4 462 197 474 220 8 14 0
44 -31 123 -95 245 -136 496 -127 785 9 275 54 478 160 725 66 153 73 156 174
91 75 -48 103 -55 123 -31 16 19 73 991 59 1017 -6 11 -20 18 -37 18 -15 -1
-224 -100 -464 -220z"/>
<path d="M2521 4188 c-13 -7 -39 -32 -58 -54 l-33 -41 146 -194 c184 -243 260
-338 412 -517 175 -206 235 -300 296 -470 85 -237 89 -536 11 -777 -134 -410
-466 -708 -900 -807 -118 -27 -363 -30 -474 -5 -41 9 -76 15 -78 13 -6 -5 111
-78 182 -113 271 -137 619 -162 910 -68 423 138 729 493 816 946 18 95 15 317
-5 422 -32 167 -112 355 -202 478 -24 32 -112 140 -196 241 -171 203 -269 329
-535 683 -99 132 -186 246 -195 252 -23 20 -71 25 -97 11z"/>
<path d="M4617 3517 c-120 -56 -223 -110 -228 -120 -8 -13 0 -43 31 -122 95
-245 136 -496 127 -785 -9 -275 -54 -478 -160 -725 -66 -153 -73 -156 -174
-91 -75 48 -103 55 -123 31 -16 -19 -73 -991 -59 -1017 5 -10 21 -18 35 -18
38 0 901 436 909 458 10 32 -4 49 -85 102 -44 29 -82 60 -85 69 -3 10 22 75
59 152 148 309 222 597 248 952 25 343 -36 745 -162 1069 -47 121 -64 148 -93
148 -12 -1 -120 -47 -240 -103z"/>
<path d="M688 1089 c-10 -5 -18 -21 -18 -35 0 -38 436 -901 458 -909 33 -10
50 5 102 85 27 43 58 81 68 84 12 4 70 -18 153 -58 309 -148 597 -222 951
-248 344 -25 746 36 1070 162 118 46 148 64 148 91 0 32 -202 460 -223 470
-13 8 -44 0 -122 -31 -245 -95 -496 -136 -785 -127 -275 9 -478 54 -725 160
-153 66 -156 73 -91 174 48 75 55 103 32 123 -10 8 -153 19 -428 35 -227 13
-449 26 -493 29 -48 4 -87 2 -97 -5z"/>
</g>
</svg>
