<svg width="1135" height="784" viewBox="0 0 1135 784" fill="none" xmlns="http://www.w3.org/2000/svg">
<path d="M1106.55 683.406H28.8574V683.877H1106.55V683.406Z" fill="#EBEBEB"/>
<path d="M998.555 713.819H927.166V714.29H998.555V713.819Z" fill="#EBEBEB"/>
<path d="M742.758 718.963H724.024V719.433H742.758V718.963Z" fill="#EBEBEB"/>
<path d="M925.006 696.276H883.649V696.747H925.006V696.276Z" fill="#EBEBEB"/>
<path d="M235.025 699.457H141.93V699.927H235.025V699.457Z" fill="#EBEBEB"/>
<path d="M267.858 699.457H254.217V699.927H267.858V699.457Z" fill="#EBEBEB"/>
<path d="M514.139 707.424H312.226V707.895H514.139V707.424Z" fill="#EBEBEB"/>
<path d="M539.681 599.105H123.497C120.238 599.099 117.114 597.959 114.812 595.936C112.51 593.913 111.217 591.171 111.217 588.313V75.2669C111.245 72.4258 112.55 69.709 114.85 67.7075C117.149 65.7059 120.257 64.5814 123.497 64.5785H539.681C542.944 64.5785 546.074 65.7155 548.382 67.7393C550.69 69.7632 551.987 72.5081 551.987 75.3703V588.313C551.987 591.175 550.69 593.92 548.382 595.944C546.074 597.968 542.944 599.105 539.681 599.105ZM123.497 64.9459C120.372 64.9459 117.375 66.0345 115.166 67.9722C112.956 69.9099 111.715 72.5381 111.715 75.2784V588.313C111.715 591.053 112.956 593.681 115.166 595.619C117.375 597.557 120.372 598.646 123.497 598.646H539.681C542.805 598.646 545.802 597.557 548.012 595.619C550.222 593.681 551.463 591.053 551.463 588.313V75.2669C551.463 72.5266 550.222 69.8985 548.012 67.9607C545.802 66.023 542.805 64.9344 539.681 64.9344L123.497 64.9459Z" fill="#EBEBEB"/>
<path d="M1005.91 599.105H589.703C586.441 599.102 583.313 597.964 581.005 595.941C578.698 593.917 577.401 591.174 577.397 588.313V75.2669C577.432 72.4237 578.743 69.7069 581.047 67.706C583.35 65.7051 586.461 64.5814 589.703 64.5785H1005.91C1009.16 64.5784 1012.27 65.7016 1014.57 67.7034C1016.87 69.7053 1018.18 72.4238 1018.21 75.2669V588.313C1018.21 589.73 1017.89 591.133 1017.27 592.442C1016.66 593.751 1015.75 594.941 1014.61 595.943C1013.47 596.945 1012.11 597.741 1010.62 598.283C1009.13 598.826 1007.53 599.105 1005.91 599.105ZM589.703 64.9459C586.578 64.9459 583.582 66.0345 581.372 67.9722C579.162 69.9099 577.921 72.5381 577.921 75.2784V588.313C577.921 591.053 579.162 593.681 581.372 595.619C583.582 597.557 586.578 598.646 589.703 598.646H1005.91C1009.04 598.646 1012.03 597.557 1014.24 595.619C1016.45 593.681 1017.7 591.053 1017.7 588.313V75.2669C1017.7 72.5266 1016.45 69.8985 1014.24 67.9607C1012.03 66.023 1009.04 64.9344 1005.91 64.9344L589.703 64.9459Z" fill="#EBEBEB"/>
<path d="M483.138 154.035H152.547V683.407H483.138V154.035Z" fill="#EBEBEB"/>
<path d="M434.672 89.3192H201.026V124.438H434.672V89.3192Z" fill="#FAFAFA"/>
<path d="M466.131 166.882H169.553V683.395H466.131V166.882Z" fill="white"/>
<path d="M451.94 398.159H392.897C392.15 398.156 391.409 398.283 390.718 398.531C390.026 398.779 389.397 399.145 388.867 399.607C388.337 400.068 387.916 400.617 387.628 401.222C387.34 401.827 387.191 402.475 387.189 403.13C387.189 404.458 387.79 405.731 388.861 406.67C389.931 407.609 391.383 408.136 392.897 408.136H451.94C453.454 408.136 454.906 407.609 455.976 406.67C457.047 405.731 457.648 404.458 457.648 403.13C457.634 401.81 457.027 400.547 455.959 399.617C454.89 398.686 453.446 398.162 451.94 398.159Z" fill="#EBEBEB"/>
<path d="M282.613 195.503H213.895V631.675H282.613V195.503Z" fill="#EBEBEB"/>
<path d="M282.613 257.177L213.895 287.303V361.192L282.613 331.067V257.177Z" fill="#F5F5F5"/>
<path d="M282.613 346.141L213.895 376.277V404.565L282.613 374.44V346.141Z" fill="#F5F5F5"/>
<path d="M282.613 499.889L213.895 530.003V558.291L282.613 528.166V499.889Z" fill="#F5F5F5"/>
<path d="M982.871 124.415H532.545V543.401H982.871V124.415Z" fill="#EBEBEB"/>
<path d="M979.376 127.688H536.041V540.175H979.376V127.688Z" fill="white"/>
<path d="M592.77 336.346L586.968 436.087L731.966 442.572L737.768 342.832L592.77 336.346Z" fill="#F0F0F0"/>
<path d="M882.096 217.56L737.892 232.348L751.12 331.542L895.324 316.754L882.096 217.56Z" fill="#F0F0F0"/>
<path d="M855.162 114.117H660.228C651.385 114.117 644.217 120.404 644.217 128.158V131.775C644.217 139.529 651.385 145.815 660.228 145.815H855.162C864.005 145.815 871.173 139.529 871.173 131.775V128.158C871.173 120.404 864.005 114.117 855.162 114.117Z" fill="#E6E6E6"/>
<path d="M854.233 125.793H661.158C655.93 125.793 651.692 129.509 651.692 134.094V134.633C651.692 139.217 655.93 142.934 661.158 142.934H854.233C859.461 142.934 863.698 139.217 863.698 134.633V134.094C863.698 129.509 859.461 125.793 854.233 125.793Z" fill="white"/>
<path d="M765.367 176.113H575.067V307.026H765.367V176.113Z" fill="#E6E6E6"/>
<path d="M600.583 191.623C588.381 191.267 587.085 197.547 591.851 201.347C596.616 205.147 643.013 227.936 644.61 234.641C646.207 241.346 649.205 251.345 653.905 242.804C658.605 234.262 667.442 236.547 670.518 229.325C672.678 224.113 650.37 223.654 643.811 219.567C624.514 207.707 607.678 191.853 600.583 191.623Z" fill="white"/>
<path d="M732.415 291.482C737.887 292.767 738.882 290.402 734.091 286.625C729.299 282.848 690.98 263.549 688.375 248.487C687.196 241.702 683.793 231.759 679.066 240.301C674.34 248.843 665.556 246.569 662.466 253.791C660.319 258.991 682.627 259.462 689.173 263.526C708.418 275.42 725.489 289.874 732.415 291.482Z" fill="white"/>
<path d="M673.896 242.85C677.967 238.9 672.324 233.206 663.893 236.535C655.462 239.865 662.964 253.584 673.896 242.85Z" fill="white"/>
<path d="M686.11 243.389C699.516 257.418 737.05 280.494 742.404 282.182C747.759 283.87 752.079 291.631 736.474 282.63C720.868 273.629 688.453 252.103 686.162 248.475C683.871 244.847 686.11 243.389 686.11 243.389Z" fill="white"/>
<path d="M931.5 347.599H741.2V478.512H931.5V347.599Z" fill="#E6E6E6"/>
<path d="M855.267 366.99C838.824 366.599 847.124 402.189 850.227 422.096C853.329 442.004 857.964 465.562 882.733 464.575C907.503 463.587 913.289 449.168 908.249 429.697C900.512 399.767 870.034 367.299 855.267 366.99Z" fill="white"/>
<path d="M817.446 366.99C833.863 366.599 825.563 402.189 822.486 422.096C819.41 442.004 814.749 465.562 789.98 464.575C765.21 463.587 759.424 449.168 764.464 429.697C772.175 399.767 802.639 367.299 817.446 366.99Z" fill="white"/>
<path d="M853.369 395.633C852.577 395.629 851.798 395.452 851.104 395.117C850.306 394.726 831.716 385.312 831.716 362.156C831.779 361.114 832.295 360.133 833.159 359.415C834.022 358.697 835.167 358.297 836.357 358.297C837.546 358.297 838.691 358.697 839.554 359.415C840.418 360.133 840.934 361.114 840.998 362.156C840.998 380.399 855.071 387.735 855.673 388.033C856.549 388.481 857.233 389.169 857.619 389.991C858.006 390.813 858.073 391.723 857.811 392.582C857.549 393.441 856.972 394.2 856.17 394.743C855.367 395.287 854.383 395.583 853.369 395.587V395.633Z" fill="white"/>
<path d="M819.344 395.634C818.335 395.618 817.36 395.315 816.565 394.771C815.77 394.227 815.199 393.47 814.937 392.616C814.675 391.762 814.738 390.856 815.115 390.036C815.492 389.215 816.163 388.525 817.026 388.068C817.694 387.735 831.715 380.399 831.715 362.191C831.778 361.149 832.295 360.168 833.158 359.45C834.022 358.732 835.166 358.331 836.356 358.331C837.546 358.331 838.691 358.732 839.554 359.45C840.418 360.168 840.934 361.149 840.997 362.191C840.997 385.347 822.394 394.761 821.595 395.163C820.902 395.484 820.128 395.646 819.344 395.634Z" fill="white"/>
<path d="M872.47 442.899C872.452 444.961 873.132 446.981 874.425 448.704C875.717 450.426 877.564 451.773 879.731 452.575C881.897 453.376 884.286 453.595 886.595 453.204C888.903 452.813 891.028 451.83 892.699 450.379C894.369 448.929 895.511 447.076 895.98 445.055C896.449 443.034 896.223 440.937 895.331 439.03C894.439 437.122 892.921 435.489 890.97 434.339C889.019 433.188 886.722 432.571 884.371 432.567C881.233 432.561 878.22 433.644 875.99 435.58C873.76 437.516 872.495 440.148 872.47 442.899Z" fill="#F5F5F5"/>
<path d="M808.805 402.338C806.789 407.826 807.706 412.958 810.821 413.819C813.937 414.68 818.087 410.96 820.09 405.496C822.093 400.031 821.19 394.876 818.061 394.015C814.932 393.154 810.808 396.874 808.805 402.338Z" fill="#F5F5F5"/>
<path d="M1014.12 450.293L1063.65 195.056H857.361L796.983 446.584L1014.12 450.293Z" fill="#D1D3D4"/>
<path d="M743.543 408.446H635.092V469.121H743.543V408.446Z" fill="#A7A9AC"/>
<path d="M658.055 385.68H720.58C726.671 385.68 732.511 387.802 736.818 391.578C741.124 395.355 743.543 400.477 743.543 405.817V408.435H635.092V405.817C635.092 400.477 637.511 395.355 641.818 391.578C646.124 387.802 651.965 385.68 658.055 385.68Z" fill="#D1D3D4"/>
<path d="M987.545 479.706H597.519V679.423H987.545V479.706Z" fill="#D1D3D4"/>
<path d="M876.554 661.122H848.879V681.684H876.554V661.122Z" fill="#F9B499"/>
<path d="M789.311 665.646H758.349V686.621H789.311V665.646Z" fill="#F9B499"/>
<path d="M1004.2 469.121H580.866C576.029 469.121 572.108 472.56 572.108 476.802V478.811C572.108 483.053 576.029 486.491 580.866 486.491H1004.2C1009.04 486.491 1012.96 483.053 1012.96 478.811V476.802C1012.96 472.56 1009.04 469.121 1004.2 469.121Z" fill="#BCBEC0"/>
<path d="M747.353 666.863C747.353 666.863 777.804 671.306 794.286 666.863L806.749 535.697L838.484 663.58C838.484 663.58 872.902 669.802 888.114 656.967L858.317 434.461C858.317 434.461 775.46 433.761 756.648 436.596L743.556 450.293L747.353 666.863Z" fill="#F20004"/>
<path opacity="0.2" d="M747.353 666.863C747.353 666.863 777.804 671.306 794.286 666.863L806.749 535.697L838.484 663.58C838.484 663.58 872.902 669.802 888.114 656.967L858.317 434.461C858.317 434.461 775.46 433.761 756.648 436.596L743.556 450.293L747.353 666.863Z" fill="black"/>
<path opacity="0.2" d="M799.484 607.979L778.419 453.714L806.749 535.709L799.484 607.979Z" fill="black"/>
<path d="M846.536 694.853C846.536 694.853 835.277 704.726 843.25 710.076H879.828C879.828 710.076 885.457 705.955 876.555 694.853V675.061H848.879L846.536 694.853Z" fill="#F20004"/>
<path d="M746.149 692.592L758.351 676.14C758.351 676.14 777.582 678.815 789.299 676.14C789.299 676.14 795.4 699.377 789.299 705.989H731.146C731.146 705.989 717.099 695.266 746.149 692.592Z" fill="#F20004"/>
<path d="M578.837 73.8893C577.606 72.3997 575.993 71.1842 574.129 70.3408C572.264 69.4973 570.2 69.0494 568.102 69.033L513.379 68.5853C511.236 68.5711 509.12 69.0078 507.209 69.8588C505.298 70.7097 503.647 71.9502 502.395 73.476L486.162 93.5097L594.914 93.2227L578.837 73.8893ZM539.68 83.5445C538.486 83.5468 537.317 83.238 536.322 82.6574C535.328 82.0767 534.552 81.2502 534.094 80.2827C533.635 79.3151 533.515 78.25 533.747 77.2223C533.98 76.1945 534.555 75.2504 535.4 74.5096C536.244 73.7687 537.321 73.2644 538.493 73.0606C539.665 72.8567 540.88 72.9625 541.983 73.3645C543.086 73.7665 544.029 74.4466 544.691 75.3187C545.353 76.1909 545.705 77.2157 545.702 78.2635C545.702 79.6641 545.068 81.0073 543.939 81.9977C542.809 82.9881 541.277 83.5445 539.68 83.5445Z" fill="#F20004"/>
<path d="M535.818 422.28C541.848 422.28 546.737 417.993 546.737 412.705C546.737 407.417 541.848 403.13 535.818 403.13C529.788 403.13 524.9 407.417 524.9 412.705C524.9 417.993 529.788 422.28 535.818 422.28Z" fill="#2166BF"/>
<path d="M539.091 442.383C544.08 442.383 548.124 438.836 548.124 434.461C548.124 430.086 544.08 426.539 539.091 426.539C534.102 426.539 530.058 430.086 530.058 434.461C530.058 438.836 534.102 442.383 539.091 442.383Z" fill="#2166BF"/>
<path d="M530.058 541.931C536.059 541.931 540.924 537.665 540.924 532.402C540.924 527.14 536.059 522.873 530.058 522.873C524.057 522.873 519.192 527.14 519.192 532.402C519.192 537.665 524.057 541.931 530.058 541.931Z" fill="#2166BF"/>
<path d="M404.025 597.601H135.489C113.566 597.601 95.7949 613.185 95.7949 632.41V675.795C95.7949 695.02 113.566 710.604 135.489 710.604H404.025C425.947 710.604 443.719 695.02 443.719 675.795V632.41C443.719 613.185 425.947 597.601 404.025 597.601Z" fill="#BCBEC0"/>
<path opacity="0.2" d="M141.878 602.825H418.111V679.423H173.939C165.436 679.423 157.281 676.461 151.268 671.188C145.256 665.916 141.878 658.764 141.878 651.307V602.825Z" fill="black"/>
<path d="M171.373 375.634C171.373 375.634 71.7456 374.486 71.7456 492.427C71.7456 492.427 75.8564 584.685 176.754 618.955C176.754 618.955 238.572 640.699 306.204 633.455C306.204 633.455 394.127 619.196 400.136 650.676C400.136 650.676 408.319 689.824 439.922 672.489L449.256 663.488V541.885L288.923 516.088L302.015 464.747C302.015 464.747 270.241 376.14 171.373 375.634Z" fill="#D1D3D4"/>
<path d="M320.055 535.697C322.113 533.009 324.388 530.454 326.863 528.051C329.817 525.176 333.04 522.522 336.498 520.118C336.498 520.118 417.509 499.923 450.592 528.395C450.592 528.395 477.338 553.905 468.92 610.803L430.588 607.979L320.055 535.697Z" fill="#3E3D48"/>
<path opacity="0.2" d="M320.055 535.697C322.113 533.009 324.388 530.454 326.863 528.051C329.817 525.176 333.04 522.522 336.498 520.118C336.498 520.118 417.509 499.923 450.592 528.395C450.592 528.395 477.338 553.905 468.92 610.803L430.588 607.979L320.055 535.697Z" fill="black"/>
<path d="M495.339 547.878C470.19 547.878 449.78 529.509 449.518 529.291L449.426 529.199C411.919 487.134 382.423 499.108 382.135 499.234L380.826 496.938C382.135 496.387 412.744 483.942 451.691 527.58C453.092 528.82 483.687 555.524 514.832 541.001C520.428 538.286 525.351 534.621 529.314 530.219C533.276 525.818 536.2 520.768 537.913 515.365C542.181 502.483 545.846 479.224 539.156 441.59C539.065 441.292 528.434 401.833 538.554 368.516L541.408 369.193C531.485 401.856 541.945 440.695 542.05 441.085C548.857 479.293 545.1 502.954 540.741 516.088C538.919 521.824 535.811 527.184 531.598 531.854C527.386 536.524 522.153 540.411 516.207 543.286C509.793 546.311 502.622 547.889 495.339 547.878Z" fill="#F20004"/>
<path d="M495.182 547.132C470.308 547.132 449.924 528.522 449.675 528.28C429.763 505.962 412.142 498.936 400.87 496.961C388.681 494.826 381.075 497.995 380.996 498.029L380.669 497.444C380.983 497.306 388.524 494.16 400.948 496.295C412.364 498.27 430.182 505.354 450.225 527.833C450.526 528.108 482.444 557.246 514.911 542.103C526.235 536.811 535.596 526.49 539.353 515.135C543.281 503.081 546.619 480.441 539.615 441.051C539.523 440.683 529.587 401.787 539.615 368.723L540.335 368.895C530.32 401.81 540.217 440.546 540.335 440.936C547.365 480.475 544.053 503.207 540.047 515.33C536.25 526.811 526.746 537.316 515.251 542.677C509.087 545.6 502.19 547.13 495.182 547.132Z" fill="#3E3D48"/>
<path opacity="0.2" d="M180.708 506.295C180.708 506.295 144.417 432.268 180.708 412.682C180.708 412.682 197.242 399.273 234.056 457.698L180.708 506.295Z" fill="black"/>
<path d="M336.498 520.072C308.05 540.209 281.578 597.555 281.578 597.555C206.694 562.975 176.754 463.163 176.754 463.163C185.224 427.699 208.331 422.005 208.331 422.005C208.331 422.005 227.34 442.119 241.793 441.281C243.653 441.201 245.411 440.511 246.718 439.348C248.025 438.185 248.786 436.633 248.849 435.001C249.019 430.627 246.899 423.451 235.155 415.001C252.175 414.565 266.104 422.005 266.104 422.005C278.764 443.37 303.049 504.321 303.049 504.321C317.528 503.873 319.034 513.058 319.034 513.058C325.016 519.682 336.498 520.072 336.498 520.072Z" fill="#F20004"/>
<path d="M202.348 424.657C202.348 424.657 227.903 448.571 246.035 446.297C248.101 446.074 250.029 445.269 251.529 444.001C253.028 442.734 254.017 441.074 254.348 439.271C255.029 434.748 252.751 427.217 240.903 415.162C239.986 415.082 239.005 415.036 237.983 415.013C236.962 414.99 236.046 415.013 235.156 415.013C244.791 422.337 248.784 428.238 248.732 434.53C248.713 435.441 248.488 436.341 248.07 437.176C247.652 438.01 247.05 438.764 246.297 439.393C245.545 440.022 244.657 440.514 243.686 440.84C242.715 441.166 241.68 441.319 240.641 441.292C234.501 441.074 224.054 437.434 208.331 422.027C207.306 422.356 206.304 422.739 205.333 423.176C204.304 423.614 203.307 424.109 202.348 424.657Z" fill="white"/>
<path d="M266.104 422.051C266.104 422.051 300.993 443.152 326.771 469.787C327.304 470.339 327.677 470.996 327.86 471.701C328.042 472.406 328.028 473.14 327.818 473.84C326.129 479.58 320.146 494.436 302.027 501.806C302.093 501.806 283.267 455.034 266.104 422.051Z" fill="#F20004"/>
<path opacity="0.2" d="M266.104 422.051C266.104 422.051 300.993 443.152 326.771 469.787C327.304 470.339 327.677 470.996 327.86 471.701C328.042 472.406 328.028 473.14 327.818 473.84C326.129 479.58 320.146 494.436 302.027 501.806C302.093 501.806 283.267 455.034 266.104 422.051Z" fill="black"/>
<path d="M302.093 501.806L303.114 504.367C303.114 504.367 315.447 503.15 319.099 513.103C319.099 513.103 325.645 521.289 336.564 520.118C336.564 520.118 359.343 514.125 396.549 513.379C396.549 513.379 429.828 514.068 444.766 524.699C445.307 525.087 445.962 525.336 446.655 525.417C447.349 525.498 448.055 525.409 448.693 525.158C454.86 522.782 471.132 515.652 465.621 508.637C465.022 507.917 464.256 507.316 463.374 506.873C462.492 506.43 461.514 506.155 460.502 506.066C453.145 505.239 431.949 502.426 437.565 497.811C437.565 497.811 454.899 501.519 452.778 492.989L437.068 489.281C427.401 488.596 417.811 491.254 410.348 496.686C408.57 497.972 406.355 498.703 404.051 498.764C398.579 498.867 388.341 498.822 382.122 497.26C382.122 497.26 355.481 493.919 345.976 495.871L325.593 479.706C325.593 479.706 319.374 495.067 302.093 501.806Z" fill="#F9B499"/>
<path d="M364.671 508.66C364.671 508.66 366.857 498.856 372.526 496.25C375.158 496.389 377.779 496.646 380.381 497.019C382.162 497.283 383.85 497.581 385.434 497.914C384.509 499.137 383.674 500.41 382.934 501.726C381.566 503.844 380.718 506.191 380.447 508.614L364.671 508.66Z" fill="white"/>
<path d="M539.091 438.215C541.455 438.215 543.372 436.535 543.372 434.461C543.372 432.388 541.455 430.707 539.091 430.707C536.727 430.707 534.81 432.388 534.81 434.461C534.81 436.535 536.727 438.215 539.091 438.215Z" fill="#3E3D48"/>
<path d="M530.058 536.157C532.422 536.157 534.339 534.476 534.339 532.402C534.339 530.329 532.422 528.648 530.058 528.648C527.694 528.648 525.777 530.329 525.777 532.402C525.777 534.476 527.694 536.157 530.058 536.157Z" fill="#3E3D48"/>
<path d="M281.579 597.601C281.579 597.601 298.31 607.107 358.963 603.777C358.963 603.777 360.888 609.323 375.092 608.22L483.556 680.25L506.414 654.028C506.414 654.028 452.071 568.693 398.147 552.803C398.147 552.803 357.798 538.923 320.055 535.697C320.055 535.697 301.923 554.514 281.579 597.601Z" fill="#3E3D48"/>
<path d="M518.616 705.817C518.616 705.817 507.2 684.062 486.843 676.484L503.862 656.967L520.54 677.024L531.406 676.358C531.406 676.358 527.309 685.68 534.247 691.007L518.616 705.817Z" fill="#F9B499"/>
<path d="M434.096 689.469C440.571 677.377 442.32 663.75 439.071 650.699C446.812 655.857 454.558 661.005 462.308 666.14L464.429 680.25C464.429 680.25 453.956 683.545 456.103 692.063L434.096 689.469Z" fill="#F9B499"/>
<path d="M497.329 351.112H585.187V364.441C585.187 365.601 584.662 366.713 583.726 367.534C582.791 368.354 581.522 368.815 580.199 368.815H502.317C500.994 368.815 499.725 368.354 498.79 367.534C497.855 366.713 497.329 365.601 497.329 364.441V351.112Z" fill="#F20004"/>
<path opacity="0.2" d="M497.329 351.112H585.187V364.441C585.187 365.601 584.662 366.713 583.726 367.534C582.791 368.354 581.522 368.815 580.199 368.815H502.317C500.994 368.815 499.725 368.354 498.79 367.534C497.855 366.713 497.329 365.601 497.329 364.441V351.112Z" fill="white"/>
<path d="M442.776 89.4341H639.753C643.399 89.4341 646.895 90.7041 649.473 92.9648C652.051 95.2255 653.499 98.2916 653.499 101.489V305.844C653.486 317.844 648.044 329.349 638.369 337.836C628.695 346.322 615.576 351.097 601.892 351.112H480.703C467.007 351.1 453.878 346.32 444.198 337.823C434.519 329.327 429.082 317.808 429.082 305.798V101.489C429.082 98.2996 430.523 95.2404 433.09 92.981C435.657 90.7216 439.139 89.4462 442.776 89.4341Z" fill="#F20004"/>
<path opacity="0.2" d="M631.544 99.6632H448.444C446.123 99.6632 444.242 101.313 444.242 103.348V104.324C444.242 106.36 446.123 108.01 448.444 108.01H631.544C633.865 108.01 635.747 106.36 635.747 104.324V103.348C635.747 101.313 633.865 99.6632 631.544 99.6632Z" fill="black"/>
<path d="M1004.72 438.318L1054.25 183.081H847.963L785.83 430.81L1004.72 438.318Z" fill="#BCBEC0"/>
<path d="M850.92 244.078H1017.87" stroke="white" stroke-miterlimit="10"/>
<path d="M846.012 266.844H1012.96" stroke="white" stroke-miterlimit="10"/>
<path d="M840.396 292.124H1007.34" stroke="white" stroke-miterlimit="10"/>
<path d="M835.486 314.879H1002.43" stroke="white" stroke-miterlimit="10"/>
<path d="M829.294 337.645H996.239" stroke="white" stroke-miterlimit="10"/>
<path d="M824.385 360.399H991.329" stroke="white" stroke-miterlimit="10"/>
<path d="M818.781 385.68H985.725" stroke="white" stroke-miterlimit="10"/>
<path d="M813.859 408.446H980.804" stroke="white" stroke-miterlimit="10"/>
<path d="M669.55 438.319H600.648V469.121H669.55V438.319Z" fill="#D1D3D4"/>
<path d="M669.55 430.81H600.648V442.382H669.55V430.81Z" fill="#939598"/>
<path d="M647.791 422.28C647.791 422.28 636.702 413.75 629.083 422.28C629.083 422.28 607.534 419.238 606.893 430.81H666.499C666.499 430.81 666.185 419.318 647.791 422.28Z" fill="#E6E7E8"/>
<path d="M720.083 432.452V447.296H706.245V459.431H689.318V447.296H675.48V432.452H689.318V420.328H706.245V432.452H720.083Z" fill="white"/>
<path d="M729.615 261.919C729.523 261.747 729.274 261.804 729.235 261.999C728.188 267.992 728.188 294.535 739.708 337.645C739.708 337.645 754.109 416.058 756.623 436.596L792.507 434.691C792.507 434.691 766.664 316.36 763.705 253.882C763.705 253.882 761.977 264.525 745.796 270.472C745.796 270.472 739.577 272.389 735.925 267.889C735.964 267.889 731.343 265.294 729.615 261.919Z" fill="#E6E7E8"/>
<path d="M759.607 250.541L759.254 247.304C759.254 247.304 801.776 249.784 819.122 266.741C821.423 268.991 822.917 271.786 823.416 274.777C826.466 292.813 840.33 371.857 853.029 397.011L872.483 459.385C872.483 459.385 806.109 490.739 800.61 477.754L782.02 387.425C782.02 387.425 760.72 288.198 763.771 254.089C763.553 253.204 763.042 252.394 762.301 251.763C761.56 251.132 760.623 250.707 759.607 250.541Z" fill="#F20004"/>
<path opacity="0.7" d="M759.607 250.541L759.254 247.304C759.254 247.304 801.776 249.784 819.122 266.741C821.423 268.991 822.917 271.786 823.416 274.777C826.466 292.813 840.33 371.857 853.029 397.011L872.483 459.385C872.483 459.385 806.109 490.739 800.61 477.754L782.02 387.425C782.02 387.425 760.72 288.198 763.771 254.089C763.553 253.204 763.042 252.394 762.301 251.763C761.56 251.132 760.623 250.707 759.607 250.541Z" fill="white"/>
<path opacity="0.2" d="M808.739 408.446C808.739 408.446 842.778 402.626 852.046 395.06L853.002 397.057L868.175 445.712C868.175 445.712 826.714 468.191 823.179 453.749L808.739 408.446Z" fill="white"/>
<path d="M664.091 398.481C664.091 398.481 702.96 422.303 723.946 403.131C723.946 403.131 712.778 343.351 706.049 322.674C706.049 322.674 690.143 299.323 699.229 279.76C699.229 279.76 683.519 289.69 683.519 336.118V360.4L666.499 351.215C666.499 351.215 676.213 382.89 664.091 398.481Z" fill="#F20004"/>
<path opacity="0.7" d="M664.091 398.481C664.091 398.481 702.96 422.303 723.946 403.131C723.946 403.131 712.778 343.351 706.049 322.674C706.049 322.674 690.143 299.323 699.229 279.76C699.229 279.76 683.519 289.69 683.519 336.118V360.4L666.499 351.215C666.499 351.215 676.213 382.89 664.091 398.481Z" fill="white"/>
<path d="M664.09 398.481C664.09 398.481 654.389 391.96 655.201 368.827C655.201 368.827 658.748 347.013 666.499 351.215C666.499 351.215 677.221 381.731 664.09 398.481Z" fill="#F20004"/>
<path opacity="0.9" d="M664.09 398.481C664.09 398.481 654.389 391.96 655.201 368.827C655.201 368.827 658.748 347.013 666.499 351.215C666.499 351.215 677.221 381.731 664.09 398.481Z" fill="white"/>
<path d="M283.267 546.627C283.267 546.627 334.665 546.627 336.498 558.326C336.498 558.326 342.154 581.287 339.3 590.724C339.3 590.724 329.481 592.113 324.087 574.33C324.087 574.33 313.614 575.88 299.815 566.201L283.267 566.534V546.627Z" fill="#F9B499"/>
<path d="M181.205 458.467C190.814 459.96 213.685 468.398 226.227 513.689C227.437 517.861 229.671 521.752 232.773 525.089L233.349 525.743C236.982 530.109 241.986 533.452 247.75 535.364C258.93 539.004 276.263 543.802 283.267 541.242V569.852C283.267 569.852 223.268 584.444 199.481 557.35C198.993 556.783 198.556 556.184 198.172 555.559C193.563 548.223 165.076 500.739 175.693 461.59C175.978 460.548 176.709 459.642 177.736 459.06C178.762 458.479 180.004 458.266 181.205 458.467Z" fill="#F20004"/>
<path opacity="0.2" d="M181.205 458.467C190.814 459.96 213.685 468.398 226.227 513.689C227.437 517.861 229.671 521.752 232.773 525.089L233.349 525.743C236.982 530.109 241.986 533.452 247.75 535.364C258.93 539.004 276.263 543.802 283.267 541.242V569.852C283.267 569.852 223.268 584.444 199.481 557.35C198.993 556.783 198.556 556.184 198.172 555.559C193.563 548.223 165.076 500.739 175.693 461.59C175.978 460.548 176.709 459.642 177.736 459.06C178.762 458.479 180.004 458.266 181.205 458.467Z" fill="black"/>
<path d="M243.822 441.062C229.186 444.128 208.331 422.05 208.331 422.05V402.706C215.335 402.706 212.258 391.833 212.258 391.833L235.182 397.987V415.047C248.273 424.507 249.412 432.371 248.732 436.482C248.538 437.591 247.965 438.623 247.089 439.441C246.212 440.259 245.073 440.824 243.822 441.062Z" fill="#F9B499"/>
<path d="M235.155 415.047V403.567C229.344 402.114 223.88 399.753 219.026 396.598C219.026 396.598 220.532 404.37 235.155 415.047Z" fill="#F7A48B"/>
<path d="M253.457 400.697C263.473 393.027 260.418 375.589 246.636 361.749C232.853 347.909 213.561 342.906 203.546 350.576C193.531 358.246 196.585 375.683 210.368 389.524C224.15 403.364 243.442 408.367 253.457 400.697Z" fill="#F9B499"/>
<path d="M214.104 385.439L212.219 365.141C212.219 365.141 241.649 361.204 237.159 345.441C237.159 345.441 238.154 335.372 215.191 336.256C215.191 336.256 190.225 326.624 184.242 353.776C184.242 353.776 157.077 376.737 181.624 395.714C183.267 396.965 185.122 397.984 187.122 398.734C194.074 401.397 212.206 407.092 213.306 398.86L214.104 385.439Z" fill="#3E3D48"/>
<path d="M218.412 397.261C221.224 394.795 220.731 390.365 217.311 387.365C213.89 384.366 208.838 383.933 206.026 386.399C203.214 388.865 203.708 393.296 207.128 396.295C210.548 399.294 215.6 399.727 218.412 397.261Z" fill="#F9B499"/>
<path d="M518.616 705.817C518.616 705.817 522.543 717.424 535.949 715.117C539.596 714.437 542.867 712.683 545.218 710.145L582.176 671.192C582.827 670.514 583.17 669.649 583.139 668.764C583.107 667.878 582.704 667.034 582.005 666.393C578.667 663.328 571.257 660.124 558.44 671.674C558.44 671.674 537.114 672.03 531.498 676.266C531.498 676.266 527.151 685.715 534.339 690.915L518.616 705.817Z" fill="#F20004"/>
<path d="M456.09 692.063L434.096 689.468C434.096 689.468 422.313 708.377 436.635 710.604H504.712C504.712 710.604 511.258 696.827 486.855 695.404C486.855 695.404 472.35 675.118 464.429 680.249C464.429 680.249 453.55 685.025 456.09 692.063Z" fill="#F20004"/>
<path d="M535.818 417.757C538.999 417.757 541.578 415.495 541.578 412.706C541.578 409.916 538.999 407.654 535.818 407.654C532.637 407.654 530.058 409.916 530.058 412.706C530.058 415.495 532.637 417.757 535.818 417.757Z" fill="#3E3D48"/>
<path opacity="0.2" d="M581.783 338.885H502.644C470.399 338.885 444.242 314.052 444.242 285.764V156.136C444.242 152.522 445.879 149.056 448.793 146.5C451.708 143.945 455.66 142.509 459.782 142.509H624.645C626.686 142.507 628.707 142.859 630.594 143.543C632.48 144.227 634.193 145.231 635.637 146.497C637.08 147.763 638.225 149.266 639.005 150.92C639.785 152.574 640.186 154.346 640.184 156.136V287.67C639.216 316.084 613.752 337.358 581.783 338.885Z" fill="white"/>
<path d="M555.443 195.01C555.443 195.01 630.667 177.513 640.185 196.422C640.185 196.422 631.44 211.967 555.443 195.01Z" fill="#3E3D48"/>
<path opacity="0.2" d="M555.443 195.01C555.443 195.01 630.667 177.513 640.185 196.422C640.185 196.422 631.44 211.967 555.443 195.01Z" fill="black"/>
<path d="M511.586 150.821H464.417C458.531 150.821 453.76 155.005 453.76 160.166V162.612C453.76 167.773 458.531 171.957 464.417 171.957H511.586C517.471 171.957 522.242 167.773 522.242 162.612V160.166C522.242 155.005 517.471 150.821 511.586 150.821Z" fill="white"/>
<path d="M478.228 162.864L476.775 166.722H474.903L479.655 154.472H481.829L486.594 166.722H484.669L483.177 162.864H478.228ZM482.81 161.636L481.449 158.111C481.135 157.308 480.938 156.584 480.729 155.872C480.519 156.596 480.284 157.342 480.022 158.088L478.647 161.636H482.81Z" fill="#F20004"/>
<path d="M490.299 154.632C491.387 154.461 492.492 154.376 493.598 154.38C494.957 154.271 496.316 154.589 497.434 155.275C497.811 155.526 498.113 155.854 498.313 156.23C498.514 156.606 498.608 157.019 498.586 157.434C498.563 158.041 498.323 158.627 497.9 159.109C497.478 159.591 496.893 159.945 496.229 160.12C497.037 160.265 497.763 160.648 498.288 161.206C498.812 161.764 499.102 162.462 499.109 163.185C499.119 163.644 499.019 164.1 498.816 164.523C498.613 164.946 498.312 165.327 497.931 165.642C496.535 166.531 494.816 166.939 493.1 166.79C492.164 166.793 491.228 166.744 490.299 166.641V154.632ZM492.105 159.649H493.742C495.653 159.649 496.766 158.777 496.766 157.594C496.766 156.159 495.522 155.597 493.702 155.597C493.167 155.583 492.631 155.622 492.105 155.711V159.649ZM492.105 165.516C492.604 165.58 493.107 165.607 493.611 165.596C495.483 165.596 497.198 164.999 497.198 163.22C497.198 161.44 495.561 160.855 493.598 160.855H492.105V165.516Z" fill="#F20004"/>
<path d="M444.242 186.973C444.242 186.973 465.189 165.286 541.251 191.979C541.251 191.979 623.061 211.438 640.185 196.422V287.67C640.185 287.67 641.337 335.096 581.783 338.885H502.644C502.644 338.885 448.052 340.033 444.242 287.67V186.973Z" fill="#3E3D48"/>
<path d="M757.369 230.278L759.607 250.542C759.607 250.542 768.902 252.034 759.607 262.022C759.607 262.022 745.651 277.223 735.937 268.325C735.937 268.325 722.911 261.207 731.499 255.696V248.326L754.711 228.809L757.369 230.278Z" fill="#F9B499"/>
<path d="M760.889 486.48L756.648 436.597C756.648 436.597 751.843 392.568 744.787 360.4C744.787 360.4 726.982 282.538 729.234 261.999C728.723 260.888 728.67 259.656 729.084 258.514C729.497 257.372 730.351 256.392 731.499 255.742V251.747C731.499 251.747 676.33 271.723 702.54 322.674C702.54 322.674 719.481 370.204 725.071 410.478C725.818 415.989 725.91 421.552 725.346 427.079C723.644 444.771 722.557 490.969 760.889 486.48Z" fill="#F20004"/>
<path opacity="0.7" d="M760.889 486.48L756.648 436.597C756.648 436.597 751.843 392.568 744.787 360.4C744.787 360.4 726.982 282.538 729.234 261.999C728.723 260.888 728.67 259.656 729.084 258.514C729.497 257.372 730.351 256.392 731.499 255.742V251.747C731.499 251.747 676.33 271.723 702.54 322.674C702.54 322.674 719.481 370.204 725.071 410.478C725.818 415.989 725.91 421.552 725.346 427.079C723.644 444.771 722.557 490.969 760.889 486.48Z" fill="white"/>
<path d="M792.532 351.112C792.532 351.112 790.372 363.201 797.179 385.553C799.4 391.574 802.067 397.461 805.165 403.176C805.165 403.176 813.335 389.457 792.532 351.112Z" fill="#F20004"/>
<path opacity="0.9" d="M792.532 351.112C792.532 351.112 790.372 363.201 797.179 385.553C799.4 391.574 802.067 397.461 805.165 403.176C805.165 403.176 813.335 389.457 792.532 351.112Z" fill="white"/>
<path d="M729.234 319.953L784.886 310.7C784.886 310.7 806.763 352.352 805.833 385.508L754.854 391.742C754.854 391.742 739.746 337.898 729.234 319.953Z" fill="#3E3D48"/>
<path d="M792.532 351.112L813.858 347.668C813.858 347.668 785.986 272.022 823.415 274.812C823.415 274.812 853.238 300.264 853.879 360.388C853.879 360.388 854.652 385.646 805.165 403.119C805.165 403.13 812.353 387.368 792.532 351.112Z" fill="#F20004"/>
<path opacity="0.8" d="M792.532 351.112L813.858 347.668C813.858 347.668 785.986 272.022 823.415 274.812C823.415 274.812 853.238 300.264 853.879 360.388C853.879 360.388 854.652 385.646 805.165 403.119C805.165 403.13 812.353 387.368 792.532 351.112Z" fill="white"/>
<path d="M801.683 371.077H791.72C790.389 371.075 789.091 371.445 788.015 372.133C781.718 376.163 758.795 390.054 751.162 384.004C751.162 384.004 749.055 380.56 751.162 378.264C751.162 378.264 746.135 377.425 747.235 372.167C747.235 372.167 743.425 370.732 746.004 366.232C743.803 364.607 742.245 362.413 741.553 359.963C741.415 359.194 741.586 358.407 742.038 357.737C742.489 357.066 743.193 356.555 744.028 356.29L765.917 348.942C765.917 348.942 764.228 342.777 753.872 338.908C753.872 338.908 748.806 335.774 753.663 333.925C753.663 333.925 771.834 330.768 781.352 349.86L792.506 351.077C792.506 351.077 799.248 363.339 801.683 371.077Z" fill="#F9B499"/>
<path d="M746.031 366.266L763.744 360.399" stroke="#F7A48B" stroke-miterlimit="10"/>
<path d="M747.261 372.202L763.743 366.266" stroke="#F7A48B" stroke-miterlimit="10"/>
<path d="M751.15 378.298L766.689 372.202" stroke="#F7A48B" stroke-miterlimit="10"/>
<path d="M670.44 381.157L640.185 354.361C640.185 354.361 606.251 347.231 615.311 315.166C615.546 314.191 616.13 313.308 616.978 312.645C617.826 311.982 618.893 311.574 620.024 311.481C622.917 311.354 626.844 313.364 630.274 322.686C630.274 322.686 637.462 329.149 640.211 326.187C640.211 326.187 633.665 313.616 640.211 314.89C640.211 314.89 644.23 323.96 648.878 327.668C648.878 327.668 655.986 335.82 655.188 343.603L666.525 351.227C668.051 355.73 669.142 360.339 669.785 365.003C670.562 370.359 670.781 375.766 670.44 381.157Z" fill="#F9B499"/>
<path d="M731.499 250.277V255.754C731.499 255.754 748.91 254.456 749.486 236.328L731.499 250.277Z" fill="#F7A48B"/>
<path d="M755.179 222.674C759.207 205.03 751.897 188.869 738.852 186.579C725.807 184.289 711.967 196.737 707.939 214.381C703.911 232.026 711.221 248.186 724.266 250.476C737.311 252.766 751.151 240.318 755.179 222.674Z" fill="#F9B499"/>
<path d="M757.813 234.239C761.493 234.239 764.477 230.44 764.477 225.755C764.477 221.069 761.493 217.271 757.813 217.271C754.133 217.271 751.15 221.069 751.15 225.755C751.15 230.44 754.133 234.239 757.813 234.239Z" fill="#F9B499"/>
<path d="M764.229 223.516C764.229 223.516 761.244 212.322 752.734 220.278C752.734 220.278 741.96 216.432 731.5 190.303C731.5 190.303 715.488 187.042 707.935 214.412C707.935 214.412 702.397 185.354 725.216 183.139C725.216 183.139 734.982 176.331 746.791 176.48C750.101 176.512 753.373 177.117 756.416 178.26C759.46 179.402 762.217 181.06 764.53 183.139C767.395 186.926 769.862 190.934 771.9 195.113C776.653 205.067 779.376 218.866 764.229 223.516Z" fill="#3E3D48"/>
<path d="M771.834 195.056C769.795 190.877 767.328 186.869 764.463 183.082C762.151 181.003 759.394 179.345 756.35 178.203C753.306 177.06 750.035 176.455 746.724 176.423C746.724 176.423 750.52 165.298 768.613 175.034C768.6 175.022 795.045 189.522 771.834 195.056Z" fill="#3E3D48"/>
<path opacity="0.2" d="M771.834 195.056C769.795 190.877 767.328 186.869 764.463 183.082C762.151 181.003 759.394 179.345 756.35 178.203C753.306 177.06 750.035 176.455 746.724 176.423C746.724 176.423 750.52 165.298 768.613 175.034C768.6 175.022 795.045 189.522 771.834 195.056Z" fill="black"/>
<path d="M122.148 632.078C121.898 632.078 121.659 631.991 121.482 631.836C121.305 631.681 121.206 631.47 121.206 631.251C121.52 599.53 109.921 478.846 81.9309 442.969C81.7956 442.787 81.7447 442.567 81.7885 442.354C81.8323 442.14 81.9676 441.95 82.1665 441.821C82.3726 441.699 82.6245 441.653 82.8689 441.692C83.1132 441.73 83.3309 441.851 83.4757 442.027C112.107 478.765 123.287 598.267 123.026 631.217C123.036 631.432 122.951 631.643 122.787 631.804C122.623 631.965 122.394 632.063 122.148 632.078Z" fill="#F20004"/>
<path d="M132.295 623.306H112.002C95.939 661.846 102.838 744.737 112.002 744.737H132.295C141.459 744.737 148.358 661.846 132.295 623.306Z" fill="#3E3D48"/>
<path d="M90.0083 458.754C94.3155 461.418 94.8392 464.426 93.0849 466.561C91.3306 468.697 88.0184 469.397 83.6458 466.734C79.2732 464.07 76.0396 456.16 76.0396 456.16C76.0396 456.16 85.6619 456.091 90.0083 458.754Z" fill="#F20004"/>
<path d="M115.904 494.666C114.451 499.166 111.439 500.509 108.481 499.775C105.522 499.04 103.768 496.503 105.208 492.025C106.648 487.548 114.136 482.29 114.136 482.29C114.136 482.29 117.344 490.223 115.904 494.666Z" fill="#F20004"/>
<path d="M108.847 524.584C112.487 527.971 112.277 530.945 110.052 532.77C107.826 534.595 104.448 534.664 100.783 531.278C97.1171 527.891 95.7817 519.556 95.7817 519.556C95.7817 519.556 105.182 521.22 108.847 524.584Z" fill="#F20004"/>
<path d="M129.689 578.302C127.542 582.596 124.453 583.594 121.585 582.538C118.718 581.482 117.409 578.761 119.438 574.502C121.468 570.242 129.82 565.822 129.82 565.822C129.82 565.822 131.784 574.031 129.689 578.302Z" fill="#F20004"/>
<path d="M74.9399 433.578C71.4314 430.673 79.2602 422.235 84.667 422.441C87.4686 422.602 86.8271 426.069 86.9973 428.962C87.1675 431.856 86.6046 434.519 82.232 435.242C77.8593 435.966 76.6287 435.036 74.9399 433.578Z" fill="#F20004"/>
<path opacity="0.2" d="M74.9399 433.578C71.4314 430.673 79.2602 422.235 84.667 422.441C87.4686 422.602 86.8271 426.069 86.9973 428.962C87.1675 431.856 86.6046 434.519 82.232 435.242C77.8593 435.966 76.6287 435.036 74.9399 433.578Z" fill="black"/>
<path d="M83.4624 430.065C83.1351 425.828 70.5279 425.748 67.4906 429.536C65.828 431.534 71.117 431.97 72.7273 434.519C74.3376 437.068 76.8773 438.549 80.3074 436.057C83.7374 433.566 83.5934 432.085 83.4624 430.065Z" fill="#F20004"/>
<path d="M87.3114 433.291C86.8925 427.619 70.397 427.619 66.2339 432.59C64.0869 435.219 68.5904 437.619 71.8371 440.156C75.0838 442.693 78.6055 444.484 83.1352 441.201C87.6649 437.917 87.5078 435.966 87.3114 433.291Z" fill="#407BFF"/>
<path opacity="0.2" d="M87.3114 433.291C86.8925 427.619 70.397 427.619 66.2339 432.59C64.0869 435.219 68.5904 437.619 71.8371 440.156C75.0838 442.693 78.6055 444.484 83.1352 441.201C87.6649 437.917 87.5078 435.966 87.3114 433.291Z" fill="black"/>
<path d="M76.105 437.929C71.4705 434.14 81.8915 422.809 89.0395 423.234C92.7314 423.429 88.8301 428.515 90.4272 432.062C92.0244 435.61 91.6055 439.169 85.8321 440.099C80.0587 441.029 78.3306 439.708 76.105 437.929Z" fill="#407BFF"/>
<path d="M87.3114 433.291C86.8925 427.619 70.397 427.619 66.2339 432.59C64.0869 435.219 68.5904 437.619 71.8371 440.156C75.0838 442.693 78.6055 444.484 83.1352 441.201C87.6649 437.917 87.5078 435.966 87.3114 433.291Z" fill="#F20004"/>
<path opacity="0.2" d="M87.3114 433.291C86.8925 427.619 70.397 427.619 66.2339 432.59C64.0869 435.219 68.5904 437.619 71.8371 440.156C75.0838 442.693 78.6055 444.484 83.1352 441.201C87.6649 437.917 87.5078 435.966 87.3114 433.291Z" fill="black"/>
<path d="M76.105 437.929C71.4705 434.14 81.8915 422.809 89.0395 423.234C92.7314 423.429 88.8301 428.515 90.4272 432.062C92.0244 435.61 91.6055 439.169 85.8321 440.099C80.0587 441.029 78.3306 439.708 76.105 437.929Z" fill="#F20004"/>
<path d="M77.3227 444.301C71.9682 439.88 83.9601 426.965 92.0638 427.401C96.371 427.631 95.4153 432.9 95.5986 437.309C95.7819 441.717 95.0095 445.736 88.372 446.757C81.7345 447.779 79.8363 446.379 77.3227 444.301Z" fill="#F20004"/>
<path opacity="0.2" d="M77.3227 444.301C71.9682 439.88 83.9601 426.965 92.0638 427.401C96.371 427.631 95.4153 432.9 95.5986 437.309C95.7819 441.717 95.0095 445.736 88.372 446.757C81.7345 447.779 79.8363 446.379 77.3227 444.301Z" fill="black"/>
<path d="M90.1785 439.008C89.7073 432.579 70.7898 432.441 65.9328 438.193C63.4323 441.212 71.4313 441.97 73.7878 445.747C76.1443 449.524 80.1373 451.878 85.3216 448.043C90.5058 444.209 90.4273 442.004 90.1785 439.008Z" fill="#F20004"/>
</svg>
